<svg width="20" height="20" viewBox="0 0 20 20" version="1.1" xmlns="http://www.w3.org/2000/svg" xmlns:xlink="http://www.w3.org/1999/xlink">
<title>basketball</title>
<desc>Created using Figma</desc>
<g id="Canvas" transform="translate(1741 1293)">
<g id="basketball">
<use xlink:href="#path0_fill" transform="translate(-1741 -1293)"/>
</g>
</g>
<defs>
<path id="path0_fill" fill-rule="evenodd" d="M 11 0.0493164L 11 0L 10 0C 4.47717 0 0 4.47717 0 10C 0 15.5228 4.47717 20 10 20C 12.7257 20 15.1962 18.9099 17 17.1414C 17.2235 16.9222 17.4373 16.6921 17.6395 16.453C 19.1122 14.7113 20 12.4594 20 10L 20 9L 19.9507 9C 19.7474 6.95312 18.927 5.08789 17.6781 3.5929C 17.4857 3.36255 17.2831 3.14099 17.071 2.92896C 15.4825 1.34045 13.3622 0.283813 11 0.0493164ZM 10 19L 10 10L 6.67871 10C 6.67871 12.604 5.68335 14.9755 4.05237 16.7549C 5.63818 18.1523 7.72009 19 10 19ZM 3.33936 16.0529C 4.79285 14.4543 5.67871 12.3307 5.67871 10L 1 10C 1 12.3307 1.88586 14.4543 3.33936 16.0529ZM 1.05493 9L 5.62378 9C 5.40979 7.06445 4.58203 5.31372 3.33936 3.94714C 2.09668 5.31372 1.26892 7.06433 1.05493 9ZM 4.05237 3.24512C 5.47192 4.79382 6.40991 6.79126 6.62927 9L 10 9L 10 1C 7.72009 1 5.63818 1.84766 4.05237 3.24512ZM 11 1.05493L 11 9L 14.0494 9C 14.2527 6.95349 15.0728 5.0885 16.3213 3.59363C 14.9191 2.20996 13.0648 1.2832 11 1.05493ZM 17 4.34265C 15.9464 5.64465 15.2488 7.24634 15.0549 9L 18.9451 9C 18.7512 7.24634 18.0536 5.64465 17 4.34265ZM 19 10L 15 10C 15 12.1433 15.7491 14.1116 17 15.6573C 18.2509 14.1116 19 12.1433 19 10ZM 16.3213 16.4064C 14.8721 14.6713 14 12.4375 14 10L 11 10L 11 18.9451C 13.0648 18.7168 14.9191 17.79 16.3213 16.4064Z"/>
</defs>
</svg>
