<svg width="19" height="19" viewBox="0 0 19 19" version="1.1" xmlns="http://www.w3.org/2000/svg" xmlns:xlink="http://www.w3.org/1999/xlink">
<title>activity</title>
<desc>Created using Figma</desc>
<g id="Canvas" transform="translate(1243 1293)">
<g id="activity">
<use xlink:href="#path0_fill" transform="translate(-1243 -1293)"/>
<use xlink:href="#path1_fill" transform="translate(-1243 -1293)"/>
<use xlink:href="#path2_fill" transform="translate(-1243 -1293)"/>
<use xlink:href="#path3_fill" transform="translate(-1243 -1293)"/>
<use xlink:href="#path4_fill" transform="translate(-1243 -1293)"/>
<use xlink:href="#path5_fill" transform="translate(-1243 -1293)"/>
<use xlink:href="#path6_fill" transform="translate(-1243 -1293)"/>
</g>
</g>
<defs>
<path id="path0_fill" d="M 2.83936 4.21875C 3.89404 5.54712 4.55981 7.19824 4.66431 9L 5.66577 9C 5.55701 6.90271 4.76794 4.98523 3.51514 3.46411C 4.9408 2.05042 6.86462 1.13831 9 1.0144L 9.5 0C 4.2533 0 0 4.2533 0 9.5L 1.0144 9C 1.1189 7.19824 1.78467 5.54712 2.83936 4.21875Z"/>
<path id="path1_fill" d="M 10 10L 13.5485 10L 14.5499 10L 14.5499 9L 13.5485 9L 10 9L 10 1.0144L 9.5 0L 9 1.0144L 9 9L 5.66577 9L 4.66431 9L 4.66431 10L 5.66577 10L 9 10L 9 17.9856L 9.5 19L 10 17.9856L 10 10Z"/>
<path id="path2_fill" d="M 16.2678 4.35657C 17.2604 5.66052 17.8846 7.26001 17.9856 9L 19 9.5C 19 4.2533 14.7467 0 9.5 0L 10 1.0144C 12.1947 1.14172 14.1659 2.10168 15.6025 3.58313C 14.4058 5.08472 13.6544 6.95703 13.5485 9L 14.5499 9C 14.6509 7.26001 15.2753 5.66064 16.2678 4.35657Z"/>
<path id="path3_fill" d="M 1.0144 10L 4.66431 10L 4.66431 9L 1.0144 9L 0 9.5L 1.0144 10Z"/>
<path id="path4_fill" d="M 3.51514 15.5359C 4.76794 14.0148 5.55701 12.0973 5.66577 10L 4.66431 10C 4.55981 11.8018 3.89404 13.4529 2.83936 14.7812C 1.78467 13.4529 1.1189 11.8018 1.0144 10L 0 9.5C 0 14.7467 4.2533 19 9.5 19L 9 17.9856C 6.86462 17.8617 4.9408 16.9496 3.51514 15.5359Z"/>
<path id="path5_fill" d="M 15.6025 15.4169C 14.1659 16.8983 12.1947 17.8583 10 17.9856L 9.5 19C 14.7467 19 19 14.7467 19 9.5L 17.9856 10C 17.8846 11.74 17.2604 13.3395 16.2678 14.6434C 15.2753 13.3394 14.6509 11.74 14.5499 10L 13.5485 10C 13.6544 12.043 14.4058 13.9153 15.6025 15.4169Z"/>
<path id="path6_fill" d="M 14.5499 10L 17.9856 10L 19 9.5L 17.9856 9L 14.5499 9L 14.5499 10Z"/>
</defs>
</svg>
