<svg width="16" height="20" viewBox="0 0 16 20" version="1.1" xmlns="http://www.w3.org/2000/svg" xmlns:xlink="http://www.w3.org/1999/xlink">
<title>food (Stroke)</title>
<desc>Created using Figma</desc>
<g id="Canvas" transform="translate(1279 1293)">
<g id="food (Stroke)">
<use xlink:href="#path0_fill" transform="translate(-1279 -1292.5)"/>
<use xlink:href="#path1_fill" transform="translate(-1279 -1292.5)"/>
<use xlink:href="#path2_fill" transform="translate(-1279 -1292.5)"/>
<use xlink:href="#path3_fill" transform="translate(-1279 -1292.5)"/>
<use xlink:href="#path4_fill" transform="translate(-1279 -1292.5)"/>
<use xlink:href="#path5_fill" transform="translate(-1279 -1292.5)"/>
</g>
</g>
<defs>
<path id="path0_fill" d="M 8.25 5.7673L 8.25 4.98322L 8.25 4.71502L 8.25 2.99994L 8.25 1.99994L 8.0508 1.99994L 8 1.99994L 7.25 1.99994L 7 1.99994L 7 2.99994L 7 6.40372L 7 7.49921L 8 8.58581L 8.65919 8.2902C 9.11129 8.08204 9.49542 7.99375 10 7.99994C 11.1823 7.99994 12.1726 8.35962 12.857 8.99187C 13.5286 9.61219 14 10.581 14 11.9999C 14 13.3536 13.3237 14.8803 12.2791 16.0886C 11.2169 17.3172 9.96878 17.9999 9 17.9999C 8.54712 18.006 8.26139 17.9422 7.92428 17.7776L 7.5 17.5788L 7.07572 17.7776C 6.73861 17.9422 6.45288 18.006 6 17.9999C 5.03122 17.9999 3.78313 17.3172 2.72094 16.0886C 1.67635 14.8803 1 13.3536 1 11.9999C 1 10.581 1.47142 9.61219 2.14298 8.99187C 2.82744 8.35962 3.8177 7.99994 5 7.99994C 5.5828 7.99167 6.02575 8.11029 6.53557 8.38482L 6 7.11994C 5.67691 7.04124 5.34249 6.99994 5 6.99994C 2.23853 6.99994 0 8.68622 0 11.9999C 0 15.3137 3.23853 18.9999 6 18.9999C 6.56238 18.9999 7.06152 18.8886 7.5 18.6832C 7.93848 18.8886 8.43762 18.9999 9 18.9999C 11.7615 18.9999 15 15.3137 15 11.9999C 15 8.68622 12.7615 6.99994 10 6.99994C 9.74508 6.99994 9.49463 7.02283 9.25 7.067C 8.90376 7.1295 8.56917 7.23462 8.25 7.37775L 8.25 6.30652L 8.25 5.7673Z"/>
<path id="path1_fill" d="M 7 7.49921C 6.6825 7.33271 6.34781 7.20466 6 7.11994L 6.53557 8.38482L 7 7.49921Z"/>
<path id="path2_fill" d="M 8 8.58581L 7 7.49921L 6.53557 8.38482L 8 8.58581Z"/>
<path id="path3_fill" d="M 7.41721 8.84717L 8 9.15279L 8 8.58581L 6.53557 8.38482L 7.25 8.75948L 7.25 8.92215L 7.41721 8.84717Z"/>
<path id="path4_fill" d="M 15.3885 0.737612C 14.0405 -0.158873 12.2452 -0.274473 10.7281 0.591493C 10.1221 0.937534 9.62493 1.40344 9.25 1.94242C 9.23673 1.9615 9.22361 1.98068 9.21064 1.99994C 8.67317 2.79838 8.39986 3.75061 8.4325 4.7088L 9.45461 4.13673C 9.58318 3.05262 10.2085 2.03971 11.2239 1.45997C 12.2344 0.883169 13.3987 0.867227 14.3664 1.30968L 15.3885 0.737612Z"/>
<path id="path5_fill" d="M 9.25 5.1361C 10.4571 5.6136 11.866 5.55523 13.0929 4.8548C 14.6099 3.98871 15.4442 2.37189 15.3885 0.737612L 14.3664 1.30968C 14.2379 2.39377 13.6125 3.40663 12.5971 3.98637C 11.5865 4.56327 10.4223 4.57919 9.45461 4.13673L 8.4325 4.7088C 8.69033 4.88027 8.96452 5.02317 9.25 5.1361Z"/>
</defs>
</svg>
