<svg width="17" height="19" viewBox="0 0 17 19" version="1.1" xmlns="http://www.w3.org/2000/svg" xmlns:xlink="http://www.w3.org/1999/xlink">
<title>foods</title>
<desc>Created using Figma</desc>
<g id="Canvas" transform="translate(1279 1293)">
<g id="foods">
<use xlink:href="#path0_fill" transform="translate(-1279 -1292.61)"/>
<use xlink:href="#path1_fill" transform="translate(-1279 -1292.61)"/>
<use xlink:href="#path2_fill" transform="translate(-1279 -1292.61)"/>
<use xlink:href="#path3_fill" transform="translate(-1279 -1292.61)"/>
</g>
</g>
<defs>
<path id="path0_fill" d="M 12.1183 6.48747C 11.4751 6.23515 10.7572 6.10832 10 6.10832C 9.88623 6.10832 9.77332 6.11296 9.66138 6.12187C 9.07397 6.16911 8.5144 6.33805 8 6.60771L 8 1.6082L 7.5 8.12834L 8.07019 7.73258C 8.68677 7.29289 9.25342 7.09477 10 7.10832C 11.1823 7.10832 12.1726 7.46806 12.8571 8.10026C 13.5286 8.72062 14 9.68937 14 11.1083C 14 12.462 13.3236 13.9887 12.2791 15.1969C 11.2169 16.4257 9.96875 17.1083 9 17.1083C 8.54712 17.1144 8.26135 17.0506 7.92432 16.886L 7.5 16.6873L 7.5 17.7915C 7.93848 17.997 8.43762 18.1083 9 18.1083C 11.7615 18.1083 15 14.422 15 11.1083C 15 8.70329 13.8208 7.15556 12.1183 6.48747Z"/>
<path id="path1_fill" d="M 6 18.1083C 6.56238 18.1083 7.06152 17.997 7.5 17.7915L 7.5 16.6873L 7.07568 16.886C 6.73865 17.0506 6.45288 17.1144 6 17.1083C 5.03125 17.1083 3.78308 16.4257 2.72095 15.1969C 1.67639 13.9887 1 12.462 1 11.1083C 1 9.68937 1.47144 8.72062 2.14294 8.10026C 2.82739 7.46806 3.81775 7.10832 5 7.10832C 5.74658 7.09477 6.31323 7.29289 6.92981 7.73258L 7.5 8.12834L 8 1.6082L 7 1.6082L 7 6.60758C 6.38757 6.28642 5.71118 6.10832 5 6.10832C 2.23853 6.10832 0 7.7946 0 11.1083C 0 14.422 3.23853 18.1083 6 18.1083Z"/>
<path id="path2_fill" d="M 11.4785 0.600017C 9.95911 1.47721 9.13403 3.11283 9.20801 4.76139L 10.2225 4.18717C 10.3368 3.08537 10.9589 2.05473 11.9785 1.46611C 12.9932 0.88029 14.1703 0.864665 15.1501 1.31889L 16.1647 0.74467C 14.8052 -0.16158 12.9978 -0.27718 11.4785 0.600017Z"/>
<path id="path3_fill" d="M 13.8942 4.90605C 15.4136 4.02885 16.2386 2.39323 16.1647 0.74467L 15.1501 1.31889C 15.0359 2.42082 14.4138 3.45133 13.3942 4.04008C 12.3795 4.6259 11.2024 4.64152 10.2225 4.18717L 9.20801 4.76139C 9.4104 4.8964 9.6228 5.01371 9.84253 5.11296C 9.89465 5.13652 9.94714 5.15898 10 5.18034C 10.7045 5.46611 11.4779 5.56913 12.244 5.46842C 12.8082 5.39433 13.3684 5.20964 13.8942 4.90605Z"/>
</defs>
</svg>
