<svg width="16" height="19" viewBox="0 0 16 19" version="1.1" xmlns="http://www.w3.org/2000/svg" xmlns:xlink="http://www.w3.org/1999/xlink">
<title>food</title>
<desc>Created using Figma</desc>
<g id="Canvas" transform="translate(1807 1277)">
<g id="food">
<use xlink:href="#path0_fill" transform="translate(-1807 -1277)"/>
</g>
</g>
<defs>
<path id="path0_fill" fill-rule="evenodd" d="M 9.25 5.13611C 10.4571 5.61359 11.866 5.5552 13.0929 4.85482C 14.6099 3.98873 15.4442 2.37178 15.3885 0.737568C 14.0405 -0.158916 12.2452 -0.274456 10.7281 0.591572C 10.1221 0.937589 9.62493 1.40348 9.25 1.94245C 9.23671 1.96155 9.22358 1.98074 9.2106 2.00002C 8.67316 2.79843 8.39986 3.75065 8.4325 4.70882C 8.69033 4.88029 8.96452 5.02319 9.25 5.13611ZM 12.5971 3.98639C 11.5865 4.56325 10.4223 4.57918 9.45461 4.13675ZM 9.45461 4.13675C 9.58319 3.05262 10.2085 2.03971 11.2239 1.46003C 12.2345 0.883142 13.3987 0.867199 14.3664 1.30964C 14.2379 2.39371 13.6124 3.40666 12.5971 3.98639L 9.45461 4.13675ZM 8.25 5.76732L 8.25 4.98323L 8.25 4.71504L 8.25 3.00002L 8.25 2.00002L 8.05077 2.00002L 8 2.00002L 7.25 2.00002L 7 2.00002L 7 3.00002L 7 6.40387L 7 7.49935C 6.6825 7.33288 6.34781 7.20481 6 7.12007C 5.67691 7.04135 5.34249 7.00002 5 7.00002C 2.23853 7.00002 0 8.6863 0 12C 0 15.3137 3.23853 19 6 19C 6.56238 19 7.0614 18.8886 7.49988 18.6832C 7.93835 18.8886 8.43762 19 9 19C 11.7615 19 15 15.3137 15 12.0001C 15 8.68636 12.7615 7.00008 10 7.00008C 9.74508 7.00008 9.49463 7.02296 9.25 7.06711C 8.90376 7.1296 8.56917 7.23469 8.25 7.37783L 8.25 6.30661L 8.25 5.76732ZM 7.41724 8.84723L 8 9.15278L 8 8.58589L 8.65919 8.29028C 9.11124 8.08214 9.49537 7.99389 10 8.00008C 11.1823 8.00008 12.1726 8.35976 12.857 8.99201C 13.5286 9.61233 14 10.5811 14 12.0001C 14 13.3537 13.3237 14.8804 12.2791 16.0887C 11.2169 17.3173 9.96878 18 9 18C 8.54716 18.006 8.2613 17.9422 7.92416 17.7777L 7.49994 17.5789L 7.0757 17.7776C 6.73846 17.9422 6.45279 18.006 6 18C 5.03122 18 3.78313 17.3172 2.72094 16.0886C 1.67634 14.8803 1 13.3536 1 12C 1 10.5811 1.47142 9.61227 2.14298 8.99195C 2.82744 8.3597 3.8177 8.00002 5 8.00002C 5.58272 7.99173 6.0257 8.11047 6.53564 8.38499L 7.25 8.75955L 7.25 8.92223L 7.41724 8.84723Z"/>
</defs>
</svg>
