<svg width="18" height="19" viewBox="0 0 18 19" version="1.1" xmlns="http://www.w3.org/2000/svg" xmlns:xlink="http://www.w3.org/1999/xlink">
<title>nature</title>
<desc>Created using Figma</desc>
<g id="Canvas" transform="translate(1845 1276)">
<g id="nature">
<use xlink:href="#path0_fill" transform="translate(-1844.37 -1275.36)"/>
<use xlink:href="#path1_fill" transform="translate(-1844.37 -1275.36)"/>
</g>
</g>
<defs>
<path id="path0_fill" fill-rule="evenodd" d="M 15.2324 1.51645C 16.2875 4.20923 15.7257 7.38698 13.5521 9.56061C 11.3784 11.7342 8.20055 12.296 5.50776 11.2408C 4.4526 8.54802 5.01438 5.37027 7.18806 3.19664C 9.36174 1.02301 12.5396 0.461281 15.2324 1.51645ZM 14.2592 10.2677C 16.8319 7.69503 17.4106 3.88345 15.9955 0.753319C 12.8654 -0.661842 9.05371 -0.083168 6.48096 2.48953C 3.9082 5.06222 3.32947 8.8738 4.74463 12.0039C 7.87476 13.4191 11.6864 12.8404 14.2592 10.2677Z"/>
<path id="path1_fill" fill-rule="evenodd" d="M 15.7399 1.21493L 0.73994 17.7149L 0 17.0423L 15 0.54226L 15.7399 1.21493Z"/>
</defs>
</svg>
