<svg width="18" height="18" viewBox="0 0 18 18" version="1.1" xmlns="http://www.w3.org/2000/svg" xmlns:xlink="http://www.w3.org/1999/xlink">
<title>Vector</title>
<desc>Created using Figma</desc>
<g id="Canvas" transform="translate(1317 1291)">
<g id="Vector">
<use xlink:href="#path0_fill" transform="translate(-1316.37 -1290.86)"/>
<use xlink:href="#path1_fill" transform="translate(-1316.37 -1290.86)"/>
</g>
</g>
<defs>
<path id="path0_fill" fill-rule="evenodd" d="M 15.2322 1.51644C 16.2875 4.20921 15.7257 7.38702 13.552 9.56072C 11.3784 11.7344 8.20063 12.2962 5.50787 11.241C 4.45261 8.54825 5.01437 5.37043 7.18806 3.19673C 9.36176 1.02304 12.5395 0.461271 15.2322 1.51644ZM 14.2592 10.2678C 16.8319 7.69507 17.4106 3.88343 15.9954 0.753299C 12.8652 -0.661862 9.05371 -0.083127 6.48096 2.48963C 3.9082 5.06238 3.32947 8.87403 4.74475 12.0042C 7.87488 13.4193 11.6864 12.8406 14.2592 10.2678Z"/>
<path id="path1_fill" fill-rule="evenodd" d="M 15.7399 1.21503L 0.73994 17.715L 0 17.0424L 15 0.542361L 15.7399 1.21503Z"/>
</defs>
</svg>
