<svg width="18" height="17" viewBox="0 0 18 17" version="1.1" xmlns="http://www.w3.org/2000/svg" xmlns:xlink="http://www.w3.org/1999/xlink">
<title>objects</title>
<desc>Created using Figma</desc>
<g id="Canvas" transform="translate(1168 1292)">
<g id="objects">
<use xlink:href="#path0_fill" transform="translate(-1167.34 -1291.22)"/>
</g>
</g>
<defs>
<path id="path0_fill" d="M 15.6673 1.61096C 13.5194 -0.536987 10.037 -0.536987 7.88901 1.61096L 1.1716 8.32849C -0.390533 9.8905 -0.390533 12.4232 1.1716 13.9854C 2.73361 15.5472 5.26572 15.5481 6.82785 13.9858L 9.30331 11.5105L 9.65683 11.1569L 12.1318 8.68213C 13.108 7.70581 13.108 6.12292 12.1318 5.14661C 11.1555 4.17029 9.57248 4.17029 8.59616 5.14661L 3.29294 10.45L 3.99997 11.157L 9.30331 5.85376C 9.88913 5.26794 10.8388 5.26794 11.4247 5.85376C 12.0105 6.43945 12.0105 7.38928 11.4247 7.97498L 8.9498 10.4498L 8.59616 10.8035L 6.12082 13.2787C 4.94931 14.4502 3.05038 14.4498 1.87863 13.2782C 0.707123 12.1066 0.707123 10.2072 1.87863 9.03552L 8.59616 2.31812C 10.3535 0.560669 13.2029 0.560669 14.9602 2.31812C 16.7176 4.07544 16.7176 6.9248 14.9602 8.68213L 8.24277 15.3997L 8.9498 16.1067L 15.6673 9.38928C 17.8152 7.24133 17.8152 3.75891 15.6673 1.61096Z"/>
</defs>
</svg>
