<svg width="20" height="18" viewBox="0 0 20 18" version="1.1" xmlns="http://www.w3.org/2000/svg" xmlns:xlink="http://www.w3.org/1999/xlink">
<title>Union</title>
<desc>Created using Figma</desc>
<g id="Canvas" transform="translate(1168 1292)">
<g id="Union">
<use xlink:href="#path0_fill" transform="translate(-1167.34 -1291.22)"/>
</g>
</g>
<defs>
<path id="path0_fill" d="M 17.0814 1.61096C 14.9336 -0.536987 11.4512 -0.536987 9.30334 1.61096L 1.17151 9.74268C -0.390503 11.3048 -0.390503 13.8374 1.17151 15.3995C 2.73352 16.9614 5.26514 16.9629 6.82739 15.4005L 10.3247 11.9032L 10.6389 11.589L 12.8389 9.38904C 13.8151 8.41272 13.8151 6.82983 12.8389 5.85352C 11.8625 4.8772 10.2795 4.8772 9.30322 5.85352L 3.64648 11.5104L 4.35352 12.2174L 10.0104 6.56067C 10.5962 5.97485 11.5459 5.97485 12.1317 6.56067C 12.7175 7.14636 12.7175 8.09619 12.1317 8.68188L 9.93188 10.8818L 9.61755 11.196L 6.12024 14.6935C 4.94885 15.8649 3.05042 15.8641 1.87866 14.6924C 0.707153 13.5209 0.707153 11.6213 1.87866 10.4498L 10.0104 2.31799C 11.7678 0.560669 14.6169 0.560669 16.3744 2.31799C 18.1317 4.07544 18.1317 6.92468 16.3744 8.68201L 8.59619 16.4602L 9.30334 17.1672L 17.0814 9.38916C 19.2294 7.24121 19.2294 3.75879 17.0814 1.61096Z"/>
</defs>
</svg>
