<svg width="20" height="24" viewBox="0 0 20 24" version="1.1" xmlns="http://www.w3.org/2000/svg" xmlns:xlink="http://www.w3.org/1999/xlink">
<title>objects</title>
<desc>Created using Figma</desc>
<g id="Canvas" transform="translate(1696 1281)">
<g id="objects">
<use xlink:href="#path0_fill" transform="translate(-1696 -1280.17)"/>
<use xlink:href="#path1_fill" transform="translate(-1696 -1280.17)"/>
<use xlink:href="#path2_fill" transform="translate(-1696 -1280.17)"/>
</g>
</g>
<defs>
<path id="path0_fill" fill-rule="evenodd" d="M 7 21.6716C 10.3137 21.6716 13 18.9853 13 15.6716C 13 12.3579 10.3137 9.67157 7 9.67157C 3.68629 9.67157 1 12.3579 1 15.6716C 1 18.9853 3.68629 21.6716 7 21.6716ZM 7 22.6716C 10.866 22.6716 14 19.5376 14 15.6716C 14 11.8056 10.866 8.67157 7 8.67157C 3.13401 8.67157 0 11.8056 0 15.6716C 0 19.5376 3.13401 22.6716 7 22.6716Z"/>
<path id="path1_fill" fill-rule="evenodd" d="M 12 4.17157C 9.51472 4.17157 7.5 6.18629 7.5 8.67157L 6.5 8.67157C 6.5 5.634 8.96243 3.17157 12 3.17157L 13 3.17157L 13 4.17157L 12 4.17157Z"/>
<path id="path2_fill" fill-rule="evenodd" d="M 19.8995 0.707092L 19.1924 0L 17.071 2.12134L 17.7782 2.82843L 19.8995 0.707092ZM 15.657 4.94971L 14.9498 4.24261L 12.8285 6.36395L 13.5356 7.07104L 15.657 4.94971ZM 12.8285 0.707092L 13.5356 0L 15.6569 2.12128L 14.9498 2.82843L 12.8285 0.707092ZM 17.7783 4.24268L 17.0712 4.94977L 19.1925 7.07111L 19.8995 6.36395L 17.7783 4.24268Z"/>
</defs>
</svg>
