<svg width="20" height="20" viewBox="0 0 20 20" version="1.1" xmlns="http://www.w3.org/2000/svg" xmlns:xlink="http://www.w3.org/1999/xlink">
<title>emoji</title>
<desc>Created using Figma</desc>
<g id="Canvas" transform="translate(1355 1293)">
<g id="emoji">
<use xlink:href="#path0_fill" transform="translate(-1355 -1293)"/>
<use xlink:href="#path1_fill" transform="translate(-1355 -1293)"/>
<use xlink:href="#path2_fill" transform="translate(-1355 -1293)"/>
<use xlink:href="#path3_fill" transform="translate(-1355 -1293)"/>
<use xlink:href="#path4_fill" transform="translate(-1355 -1293)"/>
</g>
</g>
<defs>
<path id="path0_fill" d="M 9.99994 19C 5.02936 19 1 14.9706 1 10C 1 5.02942 5.02936 1 9.99994 1L 9.99994 0C 4.47711 0 0 4.47717 0 10C 0 15.5228 4.47711 20 9.99994 20L 9.99994 19Z"/>
<path id="path1_fill" d="M 18.9999 10C 18.9999 14.9706 14.9705 19 9.99994 19L 9.99994 20C 15.5228 20 19.9999 15.5228 19.9999 10C 19.9999 4.47717 15.5228 0 9.99994 0L 9.99994 1C 14.9705 1 18.9999 5.02942 18.9999 10Z"/>
<path id="path2_fill" d="M 14.4443 7.77771C 14.4443 8.39136 13.9468 8.8888 13.3332 8.8888C 12.7195 8.8888 12.2221 8.39136 12.2221 7.77771C 12.2221 7.16406 12.7195 6.66663 13.3332 6.66663C 13.9468 6.66663 14.4443 7.16406 14.4443 7.77771Z"/>
<path id="path3_fill" d="M 5.18097 11.1111C 5.68512 13.3068 7.65143 14.9445 10.0001 14.9445C 12.3487 14.9445 14.315 13.3068 14.8191 11.1111L 13.7858 11.1111C 13.306 12.7485 11.7927 13.9445 10.0001 13.9445C 8.20746 13.9445 6.69415 12.7485 6.21429 11.1111L 5.18097 11.1111Z"/>
<path id="path4_fill" d="M 6.66669 8.8888C 7.28033 8.8888 7.77777 8.39136 7.77777 7.77771C 7.77777 7.16406 7.28033 6.66663 6.66669 6.66663C 6.05304 6.66663 5.5556 7.16406 5.5556 7.77771C 5.5556 8.39136 6.05304 8.8888 6.66669 8.8888Z"/>
</defs>
</svg>
