<svg width="20" height="21" viewBox="0 0 20 21" version="1.1" xmlns="http://www.w3.org/2000/svg" xmlns:xlink="http://www.w3.org/1999/xlink">
<title>smileys</title>
<desc>Created using Figma</desc>
<g id="Canvas" transform="translate(1883 1278)">
<g id="smileys">
<use xlink:href="#path0_fill" transform="translate(-1883 -1277.5)"/>
<mask id="mask0_outline_ins">
<use xlink:href="#path0_fill" fill="white" transform="translate(-1883 -1277.5)"/>
</mask>
<g mask="url(#mask0_outline_ins)">
<use xlink:href="#path1_stroke_2x" transform="translate(-1883 -1277.5)"/>
</g>
</g>
</g>
<defs>
<path id="path0_fill" fill-rule="evenodd" d="M 19 10C 19 14.9706 14.9706 19 10 19C 5.02942 19 1 14.9706 1 10C 1 5.02942 5.02942 1 10 1C 14.9706 1 19 5.02942 19 10ZM 20 10C 20 15.5228 15.5228 20 10 20C 4.47717 20 0 15.5228 0 10C 0 4.47717 4.47717 0 10 0C 15.5228 0 20 4.47717 20 10ZM 10.0001 14.9445C 7.65149 14.9445 5.68518 13.3068 5.18103 11.1111L 6.21436 11.1111C 6.69421 12.7486 8.20752 13.9445 10.0001 13.9445C 11.7927 13.9445 13.306 12.7486 13.7859 11.1111L 14.8192 11.1111C 14.3151 13.3068 12.3488 14.9445 10.0001 14.9445ZM 7.77783 7.77771C 7.77783 8.39136 7.2804 8.88885 6.66675 8.88885C 6.0531 8.88885 5.55566 8.39136 5.55566 7.77771C 5.55566 7.16406 6.0531 6.66663 6.66675 6.66663C 7.2804 6.66663 7.77783 7.16406 7.77783 7.77771ZM 13.3333 8.88885C 13.9469 8.88885 14.4443 8.39136 14.4443 7.77771C 14.4443 7.16406 13.9469 6.66663 13.3333 6.66663C 12.7196 6.66663 12.2222 7.16406 12.2222 7.77771C 12.2222 8.39136 12.7196 8.88885 13.3333 8.88885Z"/>
<path id="path1_stroke_2x" d="M 5.18103 11.1111L 5.18103 10.1111L 3.92541 10.1111L 4.20639 11.3349L 5.18103 11.1111ZM 6.21436 11.1111L 7.174 10.8299L 6.96337 10.1111L 6.21436 10.1111L 6.21436 11.1111ZM 13.7859 11.1111L 13.7859 10.1111L 13.0369 10.1111L 12.8262 10.8299L 13.7859 11.1111ZM 14.8192 11.1111L 15.7939 11.3349L 16.0748 10.1111L 14.8192 10.1111L 14.8192 11.1111ZM 10 20C 15.5229 20 20 15.5229 20 10L 18 10C 18 14.4183 14.4183 18 10 18L 10 20ZM 0 10C 0 15.5229 4.47713 20 10 20L 10 18C 5.5817 18 2 14.4183 2 10L 0 10ZM 10 0C 4.47713 0 0 4.47713 0 10L 2 10C 2 5.5817 5.5817 2 10 2L 10 0ZM 20 10C 20 4.47713 15.5229 0 10 0L 10 2C 14.4183 2 18 5.5817 18 10L 20 10ZM 10 21C 16.0751 21 21 16.0751 21 10L 19 10C 19 14.9705 14.9705 19 10 19L 10 21ZM -1 10C -1 16.0751 3.92489 21 10 21L 10 19C 5.02946 19 1 14.9705 1 10L -1 10ZM 10 -1C 3.92489 -1 -1 3.92489 -1 10L 1 10C 1 5.02946 5.02946 1 10 1L 10 -1ZM 21 10C 21 3.92489 16.0751 -1 10 -1L 10 1C 14.9705 1 19 5.02946 19 10L 21 10ZM 4.20639 11.3349C 4.81254 13.9748 7.17521 15.9445 10.0001 15.9445L 10.0001 13.9445C 8.12777 13.9445 6.55782 12.6388 6.15567 10.8873L 4.20639 11.3349ZM 6.21436 10.1111L 5.18103 10.1111L 5.18103 12.1111L 6.21436 12.1111L 6.21436 10.1111ZM 10.0001 12.9445C 8.66349 12.9445 7.53241 12.0529 7.174 10.8299L 5.25471 11.3923C 5.85602 13.4442 7.75155 14.9445 10.0001 14.9445L 10.0001 12.9445ZM 12.8262 10.8299C 12.4678 12.0529 11.3368 12.9445 10.0001 12.9445L 10.0001 14.9445C 12.2487 14.9445 14.1442 13.4442 14.7455 11.3923L 12.8262 10.8299ZM 14.8192 10.1111L 13.7859 10.1111L 13.7859 12.1111L 14.8192 12.1111L 14.8192 10.1111ZM 10.0001 15.9445C 12.825 15.9445 15.1877 13.9748 15.7939 11.3349L 13.8446 10.8873C 13.4424 12.6388 11.8725 13.9445 10.0001 13.9445L 10.0001 15.9445ZM 6.66675 9.88885C 7.83275 9.88885 8.77783 8.94357 8.77783 7.77771L 6.77783 7.77771C 6.77783 7.83914 6.72804 7.88885 6.66675 7.88885L 6.66675 9.88885ZM 4.55566 7.77771C 4.55566 8.94357 5.50074 9.88885 6.66675 9.88885L 6.66675 7.88885C 6.60546 7.88885 6.55566 7.83914 6.55566 7.77771L 4.55566 7.77771ZM 6.66675 5.66663C 5.50082 5.66663 4.55566 6.61178 4.55566 7.77771L 6.55566 7.77771C 6.55566 7.71635 6.60539 7.66663 6.66675 7.66663L 6.66675 5.66663ZM 8.77783 7.77771C 8.77783 6.61178 7.83268 5.66663 6.66675 5.66663L 6.66675 7.66663C 6.72811 7.66663 6.77783 7.71635 6.77783 7.77771L 8.77783 7.77771ZM 13.4443 7.77771C 13.4443 7.83914 13.3945 7.88885 13.3333 7.88885L 13.3333 9.88885C 14.4993 9.88885 15.4443 8.94357 15.4443 7.77771L 13.4443 7.77771ZM 13.3333 7.66663C 13.3946 7.66663 13.4443 7.71635 13.4443 7.77771L 15.4443 7.77771C 15.4443 6.61178 14.4992 5.66663 13.3333 5.66663L 13.3333 7.66663ZM 13.2222 7.77771C 13.2222 7.71635 13.2719 7.66663 13.3333 7.66663L 13.3333 5.66663C 12.1673 5.66663 11.2222 6.61178 11.2222 7.77771L 13.2222 7.77771ZM 13.3333 7.88885C 13.272 7.88885 13.2222 7.83914 13.2222 7.77771L 11.2222 7.77771C 11.2222 8.94357 12.1672 9.88885 13.3333 9.88885L 13.3333 7.88885Z"/>
</defs>
</svg>
