<svg width="19" height="19" viewBox="0 0 19 19" version="1.1" xmlns="http://www.w3.org/2000/svg" xmlns:xlink="http://www.w3.org/1999/xlink">
<title>people</title>
<desc>Created using Figma</desc>
<g id="Canvas" transform="translate(1355 1293)">
<g id="people">
<use xlink:href="#path0_fill" transform="translate(-1355 -1293)"/>
<use xlink:href="#path1_fill" transform="translate(-1355 -1293)"/>
<use xlink:href="#path2_fill" transform="translate(-1355 -1293)"/>
<use xlink:href="#path3_fill" transform="translate(-1355 -1293)"/>
<use xlink:href="#path4_fill" transform="translate(-1355 -1293)"/>
</g>
</g>
<defs>
<path id="path0_fill" d="M 9.5 15C 7.08093 15 5.06323 13.2822 4.59998 11L 5.62598 11C 6.07007 12.7252 7.63623 14 9.5 14C 11.3638 14 12.9299 12.7252 13.374 11L 14.4 11C 13.9368 13.2822 11.9191 15 9.5 15Z"/>
<path id="path1_fill" d="M 7 7.5C 7 8.05225 6.55225 8.5 6 8.5C 5.44775 8.5 5 8.05225 5 7.5C 5 6.94775 5.44775 6.5 6 6.5C 6.55225 6.5 7 6.94775 7 7.5Z"/>
<path id="path2_fill" d="M 13 8.5C 13.5522 8.5 14 8.05225 14 7.5C 14 6.94775 13.5522 6.5 13 6.5C 12.4478 6.5 12 6.94775 12 7.5C 12 8.05225 12.4478 8.5 13 8.5Z"/>
<path id="path3_fill" d="M 9.5 18C 4.80554 18 1 14.1945 1 9.5C 1 4.80554 4.80554 1 9.5 1L 9.5 0C 4.2533 0 0 4.2533 0 9.5C 0 14.7467 4.2533 19 9.5 19L 9.5 18Z"/>
<path id="path4_fill" d="M 18 9.5C 18 14.1945 14.1945 18 9.5 18L 9.5 19C 14.7467 19 19 14.7467 19 9.5C 19 4.2533 14.7467 0 9.5 0L 9.5 1C 14.1945 1 18 4.80554 18 9.5Z"/>
</defs>
</svg>
