<svg width="20" height="19" viewBox="0 0 20 19" version="1.1" xmlns="http://www.w3.org/2000/svg" xmlns:xlink="http://www.w3.org/1999/xlink">
<title>travel</title>
<desc>Created using Figma</desc>
<g id="Canvas" transform="translate(1733 1276)">
<g id="travel">
<use xlink:href="#path0_fill" transform="translate(-1732.04 -1275.94)"/>
</g>
</g>
<defs>
<path id="path0_fill" fill-rule="evenodd" d="M 14.9468 0.599083C 15.7456 -0.199694 17.0407 -0.199694 17.8395 0.599083C 18.6382 1.39791 18.6382 2.69301 17.8395 3.4918L 14.5593 6.77195L 16.1495 14.7019L 16.2021 14.9644L 16.0128 15.1537L 14.0536 17.113L 13.5266 17.6399L 13.2388 16.9525L 10.6242 10.7071L 7.97907 13.3522L 8.70824 16.6681L 8.76703 16.9355L 8.57345 17.1291L 7.68282 18.0196L 7.26388 18.4386L 6.92133 17.9552L 5.06732 15.3389C 4.57022 15.3203 4.07743 15.1213 3.69732 14.7413C 3.31712 14.3612 3.11817 13.8683 3.09965 13.3711L 0.483428 11.5172L 0 11.1746L 0.418977 10.7557L 1.3096 9.86512L 1.50317 9.67157L 1.77052 9.73035L 5.08641 10.4595L 7.73147 7.81441L 1.48605 5.1998L 0.798608 4.91201L 1.32558 4.38503L 3.28481 2.4258L 3.47414 2.23647L 3.73667 2.28912L 11.6666 3.87929L 14.9468 0.599083ZM 17.1323 1.30617C 16.7241 0.897937 16.0622 0.897942 15.6539 1.30619L 12.1844 4.77573L 11.9951 4.96507L 11.7326 4.91242L 3.80258 3.32224L 2.55966 4.56517L 8.80508 7.17978L 9.49252 7.46757L 8.96555 7.99454L 5.59995 11.3601L 5.40638 11.5537L 5.13902 11.4949L 1.82312 10.7658L 1.54504 11.0439L 3.8973 12.7108L 4.13847 12.8817L 4.10499 13.1753C 4.06998 13.4825 4.17009 13.7999 4.40436 14.0341C 4.63873 14.2684 4.9561 14.3685 5.26313 14.3335L 5.55681 14.3001L 5.72771 14.5412L 7.39469 16.8936L 7.67278 16.6155L 6.94361 13.2996L 6.88482 13.0322L 7.07839 12.8386L 10.4441 9.47298L 10.9711 8.94601L 11.2589 9.63346L 13.8734 15.8789L 15.1164 14.6359L 13.5262 6.70603L 13.4735 6.44351L 13.6629 6.25417L 17.1323 2.78469C 17.5406 2.37645 17.5406 1.7145 17.1323 1.30617Z"/>
</defs>
</svg>
