<svg width="18" height="18" viewBox="0 0 18 18" version="1.1" xmlns="http://www.w3.org/2000/svg" xmlns:xlink="http://www.w3.org/1999/xlink">
<title>transportation</title>
<desc>Created using Figma</desc>
<g id="Canvas" transform="translate(1205 1292)">
<g id="transportation">
<use xlink:href="#path0_fill" transform="translate(-1204.86 -1292)"/>
<use xlink:href="#path1_fill" transform="translate(-1204.86 -1292)"/>
<use xlink:href="#path2_fill" transform="translate(-1204.86 -1292)"/>
</g>
</g>
<defs>
<path id="path0_fill" d="M 11.9747 1.55383C 12.5566 1.17468 13.1697 0.994873 13.8641 1L 17.861 1L 17.861 0L 13.8641 0C 13.0276 0.00512695 12.1419 0.264648 11.4349 0.712036L 2.07887 6.71204C -1.70385 9.13794 0.0142913 15 4.50807 15L 9.39637 15L 10.411 15L 12.6918 15L 15.3109 15L 16.3256 15L 17.861 15L 17.861 14L 12.6918 14L 4.50807 14C 1.26454 14 -0.119864 10.0732 2.0492 8L 3.48231 7L 7.38062 4.5L 8.93995 3.5L 11.9747 1.55383Z"/>
<path id="path1_fill" d="M 13.111 3.5L 8.93995 3.5L 7.38062 4.5L 13.111 4.5C 13.8013 4.5 14.361 5.05969 14.361 5.75C 14.361 6.44031 13.8013 7 13.111 7L 3.48231 7L 2.0492 8L 13.111 8C 14.3536 8 15.361 6.99268 15.361 5.75C 15.361 4.50732 14.3536 3.5 13.111 3.5Z"/>
<path id="path2_fill" d="M 12.861 18C 14.6242 18 16.0829 16.6962 16.3256 15L 15.3109 15C 15.0794 16.1411 14.0704 17 12.861 17C 11.6515 17 10.6426 16.1411 10.411 15L 9.39637 15C 9.63905 16.6962 11.0978 18 12.861 18Z"/>
</defs>
</svg>
