<svg width="20" height="19" viewBox="0 0 20 19" version="1.1" xmlns="http://www.w3.org/2000/svg" xmlns:xlink="http://www.w3.org/1999/xlink">
<title>Vector</title>
<desc>Created using Figma</desc>
<g id="Canvas" transform="translate(1207 1292)">
<g id="Vector">
<use xlink:href="#path0_fill" transform="translate(-1206.14 -1292)"/>
<use xlink:href="#path1_fill" transform="translate(-1206.14 -1292)"/>
<use xlink:href="#path2_fill" transform="translate(-1206.14 -1292)"/>
</g>
</g>
<defs>
<path id="path0_fill" fill-rule="evenodd" d="M 15.1626 1C 14.4544 0.99473 13.8297 1.1816 13.2407 1.57485L 2.58638 8.57485C -0.317953 10.483 1.03313 15 4.50823 15L 13.9661 15L 19.1354 15L 19.1354 16L 13.9661 16L 4.50823 16C 0.0402508 16 -1.69686 10.1925 2.03728 7.73909L 12.6916 0.739093C 13.4074 0.27514 14.3096 0.0052703 15.1626 0L 19.1354 0L 19.1354 1L 15.1626 1Z"/>
<path id="path1_fill" fill-rule="evenodd" d="M 12.6354 15.5C 12.6354 16.8807 13.7547 18 15.1354 18C 16.5161 18 17.6354 16.8807 17.6354 15.5L 18.6354 15.5C 18.6354 17.433 17.0684 19 15.1354 19C 13.2024 19 11.6354 17.433 11.6354 15.5L 12.6354 15.5Z"/>
<path id="path2_fill" fill-rule="evenodd" d="M 14.3854 4.5L 8.63538 4.5L 8.63538 3.5L 14.3854 3.5C 15.628 3.5 16.6354 4.50736 16.6354 5.75C 16.6354 6.99264 15.628 8 14.3854 8L 3.13538 8L 3.13538 7L 14.3854 7C 15.0757 7 15.6354 6.44036 15.6354 5.75C 15.6354 5.05964 15.0757 4.5 14.3854 4.5Z"/>
</defs>
</svg>
