<svg width="20" height="20" viewBox="0 0 20 20" version="1.1" xmlns="http://www.w3.org/2000/svg" xmlns:xlink="http://www.w3.org/1999/xlink">
<title>Vector</title>
<desc>Created using Figma</desc>
<g id="Canvas" transform="translate(1395 1293)">
<g id="Vector">
<use xlink:href="#path0_fill" transform="translate(-1395 -1293)"/>
<use xlink:href="#path1_fill" transform="translate(-1395 -1293)"/>
<use xlink:href="#path2_fill" transform="translate(-1395 -1293)"/>
</g>
</g>
<defs>
<path id="path0_fill" d="M 9 4L 10 4L 10 10L 16 10L 16 11L 10 11L 9 11L 9 10L 9 4Z"/>
<path id="path1_fill" d="M 10 20C 4.47717 20 0 15.5228 0 10C 0 4.47717 4.47717 0 10 0L 10 1C 5.02942 1 1 5.02942 1 10C 1 14.9706 5.02942 19 10 19L 10 20Z"/>
<path id="path2_fill" d="M 20 10C 20 15.5228 15.5228 20 10 20L 10 19C 14.9706 19 19 14.9706 19 10C 19 5.02942 14.9706 1 10 1L 10 0C 15.5228 0 20 4.47717 20 10Z"/>
</defs>
</svg>
