<svg width="19" height="17" viewBox="0 0 19 17" version="1.1" xmlns="http://www.w3.org/2000/svg" xmlns:xlink="http://www.w3.org/1999/xlink">
<title>symbols</title>
<desc>Created using Figma</desc>
<g id="Canvas" transform="translate(1131 1292)">
<g id="symbols">
<use xlink:href="#path0_fill" transform="translate(-1130.5 -1291.5)"/>
<use xlink:href="#path1_fill" transform="translate(-1130.5 -1291.5)"/>
</g>
</g>
<defs>
<path id="path0_fill" d="M 1 5C 1 2.79091 2.79091 1 5 1C 6.54723 1 7.89015 1.8784 8.55585 3.16603L 9 4.02513L 9 1.99968C 8.08821 0.786061 6.63622 0 5 0C 2.23863 0 0 2.23863 0 5C 0 6.63571 0.786056 8.08793 1.99875 8.99938L 8.65451 15.3614L 9 15.6917L 9 14.3083L 2.66775 8.2555L 2.64519 8.23393L 2.62011 8.21534C 1.63619 7.48562 1 6.31713 1 5Z"/>
<path id="path1_fill" d="M 15.3322 8.2555L 9 14.3083L 9 15.6917L 9.34549 15.3614L 16.0013 8.99938C 17.2139 8.08793 18 6.63571 18 5C 18 2.23863 15.7614 0 13 0C 11.3638 0 9.91179 0.786061 9 1.99968L 9 4.02513L 9.44415 3.16603C 10.1099 1.8784 11.4528 1 13 1C 15.2091 1 17 2.79091 17 5C 17 6.31713 16.3638 7.48562 15.3799 8.21534L 15.3548 8.23393L 15.3322 8.2555Z"/>
</defs>
</svg>
