<svg width="19" height="16" viewBox="0 0 19 16" version="1.1" xmlns="http://www.w3.org/2000/svg" xmlns:xlink="http://www.w3.org/1999/xlink">
<title>Union (Stroke)</title>
<desc>Created using Figma</desc>
<g id="Canvas" transform="translate(1132 1290)">
<g id="Union (Stroke)">
<use xlink:href="#path0_fill" transform="translate(-1131.5 -1289.5)"/>
</g>
</g>
<defs>
<path id="path0_fill" fill-rule="evenodd" d="M 5.05505 1C 2.79626 1 1 2.75369 1 4.875C 1 6.12494 1.61959 7.24236 2.59326 7.95445L 2.93721 8.20599L 2.90819 8.26281L 9 13.823L 15.0927 8.26203L 15.0638 8.20513L 15.4067 7.95433C 16.3804 7.24223 17 6.12493 17 4.875C 17 2.7537 15.2036 1 12.9449 1C 11.4353 1 10.1258 1.78696 9.42824 2.94437L 9.00003 3.65486L 8.57178 2.9444C 7.87409 1.78695 6.56457 1 5.05505 1ZM 0 4.875C 0 2.16379 2.28236 0 5.05505 0C 6.64635 0 8.07138 0.710132 8.99998 1.82632C 9.92852 0.710119 11.3536 0 12.9449 0C 15.7175 0 18 2.16378 18 4.875C 18 6.3754 17.2974 7.71236 16.2022 8.6032L 16.0476 8.7443L 9.33707 14.8693L 9 15.177L 8.66293 14.8693L 1.95236 8.7443L 1.79898 8.60431C 0.703066 7.71346 0 6.37594 0 4.875Z"/>
</defs>
</svg>
