<svg width="19" height="16" viewBox="0 0 19 16" version="1.1" xmlns="http://www.w3.org/2000/svg" xmlns:xlink="http://www.w3.org/1999/xlink">
<title>symbols</title>
<desc>Created using Figma</desc>
<g id="Canvas" transform="translate(1660 1274)">
<g id="symbols">
<use xlink:href="#path0_fill" transform="translate(-1659.5 -1274)"/>
</g>
</g>
<defs>
<path id="path0_fill" fill-rule="evenodd" d="M 5.05505 1C 2.79626 1 1 2.75369 1 4.875C 1 6.12493 1.61958 7.24229 2.59326 7.95439L 2.9367 8.20556L 2.90776 8.26242L 9 13.823L 15.0922 8.26242L 15.0633 8.20556L 15.4067 7.95439C 16.3804 7.24229 17 6.12493 17 4.875C 17 2.7537 15.2036 1 12.9449 1C 11.4353 1 10.1258 1.78696 9.42824 2.94437L 9.00003 3.65486L 8.57178 2.9444C 7.87409 1.78695 6.56457 1 5.05505 1ZM 0 4.875C 0 2.16379 2.28236 0 5.05505 0C 6.64635 0 8.07138 0.710132 8.99998 1.82632C 9.92852 0.710119 11.3536 0 12.9449 0C 15.7175 0 18 2.16378 18 4.875C 18 6.37567 17.2972 7.71291 16.2016 8.60376L 16.0476 8.7443L 9.33707 14.8693L 9 15.177L 8.66293 14.8693L 1.95236 8.7443L 1.79838 8.60376C 0.702813 7.71291 0 6.37567 0 4.875Z"/>
</defs>
</svg>
